<svg xmlns="http://www.w3.org/2000/svg" xmlns:xlink="http://www.w3.org/1999/xlink" width="380" zoomAndPan="magnify" viewBox="0 0 285 131.249995" height="175" preserveAspectRatio="xMidYMid meet" version="1.0"><defs><g/><clipPath id="id1"><path d="M 1.761719 46 L 89 46 L 89 82 L 1.761719 82 Z M 1.761719 46 " clip-rule="nonzero"/></clipPath><clipPath id="id2"><path d="M 2 68 L 65 68 L 65 130.503906 L 2 130.503906 Z M 2 68 " clip-rule="nonzero"/></clipPath></defs><path fill="#000000" d="M 94.445312 57.785156 C 98.058594 44.558594 92.59375 21.304688 113.027344 26.667969 L 144.316406 37.753906 C 177.902344 49.664062 143.394531 55.675781 149.265625 58.511719 C 143.679688 58.097656 94.445312 57.785156 94.445312 57.785156 Z M 94.445312 57.785156 " fill-opacity="1" fill-rule="nonzero"/><g clip-path="url(#id1)"><path fill="#000000" d="M 1.734375 81.160156 L 1.734375 75.710938 C 1.734375 75.710938 10.289062 51.429688 43.414062 46.5 C 72.148438 42.226562 88.328125 67.296875 88.328125 67.296875 L 73.953125 76.207031 C 73.953125 76.207031 64.25 61.070312 43.054688 60.367188 C 12.214844 59.339844 1.730469 81.160156 1.730469 81.160156 Z M 1.734375 81.160156 " fill-opacity="1" fill-rule="nonzero"/></g><g clip-path="url(#id2)"><path fill="#000000" d="M 42.226562 68.265625 C 20.234375 68.265625 2.410156 82.207031 2.410156 99.402344 C 2.410156 116.597656 20.238281 130.539062 42.226562 130.539062 C 50.675781 130.539062 58.511719 128.476562 64.960938 124.964844 C 59.964844 126.960938 54.300781 128.078125 48.308594 128.078125 C 28.054688 128.078125 11.636719 115.242188 11.636719 99.402344 C 11.636719 83.5625 28.054688 70.722656 48.308594 70.722656 C 54.316406 70.722656 59.996094 71.855469 65 73.855469 C 58.546875 70.332031 50.695312 68.265625 42.226562 68.265625 Z M 42.226562 68.265625 " fill-opacity="1" fill-rule="evenodd"/></g><path fill="#000000" d="M 236.070312 68.550781 C 258.34375 68.550781 276.40625 81.941406 276.40625 98.464844 C 276.40625 114.988281 258.347656 128.378906 236.070312 128.378906 C 227.507812 128.378906 219.570312 126.402344 213.042969 123.027344 C 218.101562 124.941406 223.835938 126.019531 229.910156 126.019531 C 250.425781 126.019531 267.058594 113.683594 267.058594 98.464844 C 267.058594 83.246094 250.425781 70.910156 229.910156 70.910156 C 223.820312 70.910156 218.070312 71.996094 213 73.921875 C 219.539062 70.535156 227.492188 68.546875 236.070312 68.546875 Z M 236.070312 68.550781 " fill-opacity="1" fill-rule="evenodd"/><path fill="#000000" d="M 45.609375 100.054688 L 36.035156 101 L 89.496094 16.679688 L 146.609375 6.226562 L 164.308594 9.210938 L 96.132812 21.160156 Z M 45.609375 100.054688 " fill-opacity="1" fill-rule="nonzero"/><path fill="#000000" d="M 48.980469 13.054688 L 51.15625 36.886719 C 51.15625 36.886719 77.375 27.335938 76.046875 16.742188 C 74.769531 6.617188 48.238281 3.992188 48.238281 3.992188 Z M 48.980469 13.054688 " fill-opacity="1" fill-rule="nonzero"/><path fill="#000000" d="M 156.113281 60.222656 L 156.113281 56.886719 L 168.3125 42.214844 C 180.535156 77.585938 283.1875 0.0625 274.027344 51.550781 C 274.027344 51.550781 194.332031 66.226562 189.453125 66.226562 C 184.574219 66.226562 156.113281 60.890625 156.113281 60.222656 Z M 156.113281 60.222656 " fill-opacity="1" fill-rule="nonzero"/><g fill="#ff0000" fill-opacity="1"><g transform="translate(89.161333, 120.923988)"><g><path d="M 17.4375 0 L 10.890625 -23.109375 L 10.6875 -23.109375 C 10.988281 -19.171875 11.140625 -16.113281 11.140625 -13.9375 L 11.140625 0 L 3.46875 0 L 3.46875 -32.078125 L 15.015625 -32.078125 L 21.703125 -9.296875 L 21.875 -9.296875 L 28.4375 -32.078125 L 40 -32.078125 L 40 0 L 32.03125 0 L 32.03125 -14.0625 C 32.03125 -14.789062 32.039062 -15.601562 32.0625 -16.5 C 32.082031 -17.394531 32.179688 -19.582031 32.359375 -23.0625 L 32.171875 -23.0625 L 25.6875 0 Z M 17.4375 0 "/></g></g></g><g fill="#000000" fill-opacity="1"><g transform="translate(132.597177, 120.923988)"><g><path d="M 3.46875 -32.078125 L 14.65625 -32.078125 C 19.019531 -32.078125 22.253906 -31.429688 24.359375 -30.140625 C 26.472656 -28.847656 27.53125 -26.832031 27.53125 -24.09375 C 27.53125 -22.289062 27.066406 -20.753906 26.140625 -19.484375 C 25.222656 -18.210938 24.015625 -17.394531 22.515625 -17.03125 L 22.515625 -16.8125 C 24.503906 -16.28125 25.941406 -15.398438 26.828125 -14.171875 C 27.722656 -12.941406 28.171875 -11.347656 28.171875 -9.390625 C 28.171875 -6.484375 27.078125 -4.191406 24.890625 -2.515625 C 22.703125 -0.835938 19.722656 0 15.953125 0 L 3.46875 0 Z M 12.140625 -19.765625 L 14.75 -19.765625 C 15.988281 -19.765625 16.945312 -20.019531 17.625 -20.53125 C 18.3125 -21.050781 18.65625 -21.8125 18.65625 -22.8125 C 18.65625 -24.613281 17.289062 -25.515625 14.5625 -25.515625 L 12.140625 -25.515625 Z M 12.140625 -13.421875 L 12.140625 -6.6875 L 15.1875 -6.6875 C 17.894531 -6.6875 19.25 -7.828125 19.25 -10.109375 C 19.25 -11.179688 18.882812 -12 18.15625 -12.5625 C 17.4375 -13.132812 16.390625 -13.421875 15.015625 -13.421875 Z M 12.140625 -13.421875 "/></g></g></g><g fill="#ff0000" fill-opacity="1"><g transform="translate(162.865047, 120.923988)"><g><path d="M 30.703125 -16.71875 C 30.703125 -11.363281 29.226562 -7.238281 26.28125 -4.34375 C 23.332031 -1.445312 19.1875 0 13.84375 0 L 3.46875 0 L 3.46875 -32.078125 L 14.5625 -32.078125 C 19.71875 -32.078125 23.695312 -30.757812 26.5 -28.125 C 29.300781 -25.5 30.703125 -21.695312 30.703125 -16.71875 Z M 21.703125 -16.40625 C 21.703125 -19.351562 21.117188 -21.535156 19.953125 -22.953125 C 18.796875 -24.367188 17.03125 -25.078125 14.65625 -25.078125 L 12.140625 -25.078125 L 12.140625 -7.109375 L 14.0625 -7.109375 C 16.695312 -7.109375 18.628906 -7.867188 19.859375 -9.390625 C 21.085938 -10.921875 21.703125 -13.257812 21.703125 -16.40625 Z M 21.703125 -16.40625 "/></g></g></g></svg>